<?xml version="1.0" encoding="utf-8"?>
<!-- Generator: Adobe Illustrator 22.0.1, SVG Export Plug-In . SVG Version: 6.00 Build 0)  -->
<svg version="1.1" id="Camada_1" xmlns="http://www.w3.org/2000/svg" xmlns:xlink="http://www.w3.org/1999/xlink" x="0px" y="0px"
	 viewBox="0 0 85 85" style="enable-background:new 0 0 85 85;" xml:space="preserve">
<style type="text/css">
	.st0{fill:#06EAC3;}
	.st1{fill:#20191A;}
	.st2{fill:#FFFFFF;}
</style>
<g>
	<g>
		<path class="st0" d="M82.8,42.5c0,22.3-18,40.3-40.3,40.3c-22.3,0-40.3-18-40.3-40.3c0-22.3,18-40.3,40.3-40.3
			C64.8,2.2,82.8,20.3,82.8,42.5"/>
	</g>
	<g>
		<path class="st1" d="M20.8,50.2H10.5V24.8h9.9c4.7,0,7.7,2.7,7.7,7c0,2.7-1.7,4.7-3.4,5.4c2,0.8,3.8,2.7,3.8,5.9
			C28.5,47.7,25.3,50.2,20.8,50.2 M20.1,28.2h-5.7v7.3h5.7c2.5,0,4.1-1.3,4.1-3.6C24.2,29.5,22.5,28.2,20.1,28.2 M20.4,39h-6.1v7.8
			h6.1c2.7,0,4.2-1.6,4.2-3.9C24.6,40.6,23.1,39,20.4,39"/>
	</g>
	<g>
		<path class="st2" d="M30.3,50.2v-3.3l10-12.2c1-1.2,1.4-2.2,1.4-3.5c0-2.3-1.4-4-3.8-4c-2,0-3.8,1.1-3.8,4h-3.7
			c0-4.4,3.2-7.4,7.6-7.4c4.5,0,7.5,2.8,7.5,7.3c0,2.3-0.8,3.7-2.5,5.6l-8.2,10h10.6v3.3H30.3z"/>
	</g>
	<g>
		<polygon class="st1" points="69.4,50.2 66,50.2 60.9,32.4 55.7,50.2 52.4,50.2 45.7,24.8 49.8,24.8 54.2,42.9 59.3,24.8 
			62.4,24.8 67.5,42.9 72,24.8 76,24.8 		"/>
	</g>
	<g>
		<path d="M24.3,56.7h2.5c1.1,0,1.9,0.3,2.6,1c0.7,0.7,1,1.6,1,2.7c0,1.1-0.3,2-1,2.7c-0.7,0.7-1.6,1-2.7,1h-2.4V56.7z M25.9,58v4.6
			h0.6c0.7,0,1.2-0.2,1.6-0.5s0.6-1,0.6-1.8c0-0.5-0.1-0.9-0.3-1.3c-0.2-0.4-0.5-0.6-0.9-0.8c-0.4-0.1-0.8-0.2-1.1-0.2H25.9z"/>
		<path d="M31.6,56.7h1.6V64h-1.6V56.7z"/>
		<path d="M40.9,58.3l-1.1,1c-0.2-0.4-0.5-0.7-0.8-0.9s-0.7-0.3-1-0.3c-0.6,0-1.1,0.2-1.5,0.7c-0.4,0.4-0.6,1-0.6,1.6
			c0,0.6,0.2,1.2,0.6,1.6c0.4,0.4,0.9,0.7,1.5,0.7c0.3,0,0.6-0.1,0.9-0.2c0.3-0.2,0.5-0.5,0.7-0.9H38V60h3.4v1c0,0.5-0.2,1-0.5,1.6
			c-0.3,0.6-0.8,1-1.3,1.2c-0.6,0.3-1.1,0.4-1.7,0.4c-1,0-1.9-0.4-2.6-1.1c-0.7-0.7-1.1-1.7-1.1-2.7c0-1,0.4-1.9,1.1-2.6
			c0.7-0.7,1.6-1.1,2.6-1.1C39.2,56.6,40.2,57.1,40.9,58.3z"/>
		<path d="M42.5,56.7h1.6V64h-1.6V56.7z"/>
		<path d="M45,56.7h5v1.6h-1.7V64h-1.6v-5.8H45V56.7z"/>
		<path d="M52.8,56.7H54l3,7.4h-1.6l-0.6-1.5H52L51.4,64h-1.6L52.8,56.7z M53.4,59.1l-0.9,2.2h1.8L53.4,59.1z"/>
		<path d="M58.2,56.7h1.6v5.8H62V64h-3.8V56.7z"/>
	</g>
</g>
</svg>
